<svg width="28" height="28" viewBox="0 0 28 28" fill="none" xmlns="http://www.w3.org/2000/svg">
<path d="M14 2.33337C7.56704 2.33337 2.33337 7.56704 2.33337 14C2.33337 20.433 7.56704 25.6667 14 25.6667C20.433 25.6667 25.6667 20.433 25.6667 14C25.6667 7.56704 20.433 2.33337 14 2.33337ZM14 23.3334C8.85387 23.3334 4.66671 19.1462 4.66671 14C4.66671 8.85387 8.85387 4.66671 14 4.66671C19.1462 4.66671 23.3334 8.85387 23.3334 14C23.3334 19.1462 19.1462 23.3334 14 23.3334Z" fill="white"/>
<path d="M10.5 19.8333L19.8333 14L10.5 8.16663V19.8333Z" fill="white"/>
</svg>
