<svg width="current" height="current" viewBox="0 0 15 15" fill="current" xmlns="http://www.w3.org/2000/svg">
<path d="M5.24412 11H6.467V6.16546H5.24077L4.0112 7.00304V8.06175L5.22067 7.24427H5.24412V11ZM9.45843 11.1206C10.7215 11.1206 11.5021 10.149 11.5021 8.571C11.5021 6.98294 10.7115 6.04149 9.45843 6.04149C8.20206 6.04149 7.40803 6.98629 7.40803 8.57435C7.40803 10.1557 8.19201 11.1206 9.45843 11.1206ZM9.45843 10.1624C8.97598 10.1624 8.6577 9.61631 8.6577 8.571C8.6577 7.5324 8.97934 6.99969 9.45843 6.99969C9.93753 6.99969 10.2525 7.52905 10.2525 8.57435C10.2525 9.61966 9.93753 10.1624 9.45843 10.1624Z" fill="current"/>
<path d="M4.93387 5.5V3.05814H5.78117V2.42799H3.30739V3.05814H4.15469V5.5H4.93387ZM7.36159 2.37477C6.43126 2.37477 5.84368 2.98576 5.84368 3.96506C5.84368 4.94436 6.42913 5.55322 7.36159 5.55322C8.29192 5.55322 8.87737 4.94436 8.87737 3.96506C8.87737 2.98576 8.29192 2.37477 7.36159 2.37477ZM7.36159 3.00918C7.79802 3.00918 8.08329 3.37961 8.08329 3.96506C8.08329 4.54838 7.79802 4.91881 7.36159 4.91881C6.92304 4.91881 6.63989 4.54838 6.63989 3.96506C6.63989 3.37961 6.92516 3.00918 7.36159 3.00918ZM9.23792 2.42799V5.5H10.0192V4.59947H10.5217C11.205 4.59947 11.6755 4.17156 11.6755 3.51586C11.6755 2.8559 11.2285 2.42799 10.5685 2.42799H9.23792ZM10.0192 3.02621H10.362C10.6898 3.02621 10.8857 3.19865 10.8857 3.51799C10.8857 3.83945 10.6898 4.01189 10.3577 4.01189H10.0192V3.02621Z" fill="current"/>
<rect x="0.5" y="0.5" width="current" height="current" stroke="current"/>
</svg>
